<svg width="230" height="62" viewBox="0 0 230 62" fill="none" xmlns="http://www.w3.org/2000/svg">
<path d="M36.7948 61.8357C51.517 59.272 62.7077 46.4349 62.7077 31.0109C62.7077 15.5868 51.517 2.74971 36.7948 0.142609L33.3936 19.4215C36.1167 19.902 38.5833 21.3247 40.3606 23.44C42.1379 25.5553 43.1122 28.228 43.1127 30.9892C43.1127 36.7722 38.8997 41.5927 33.3936 42.5568L36.7948 61.8357ZM25.913 61.8574L29.3141 42.5785C26.6008 42.094 24.143 40.6762 22.3673 38.5711C20.5917 36.4659 19.6103 33.8065 19.5935 31.0543C19.5935 25.2712 23.8065 20.4507 29.3126 19.4866L25.913 0.207709C11.1907 2.77141 0 15.6085 0 31.0326C0 46.4566 11.1907 59.272 25.913 61.8574Z" fill="#F75D34"/>
<path d="M96.5671 42.5L94.9109 37.0625H86.5828L84.9265 42.5H79.7078L87.7703 19.5625H93.6921L101.786 42.5H96.5671ZM93.7546 33C92.2234 28.0729 91.3588 25.2865 91.1609 24.6406C90.9734 23.9948 90.838 23.4844 90.7546 23.1094C90.4109 24.4427 89.4265 27.7396 87.8015 33H93.7546ZM116.677 42.5L116.036 40.2656H115.786C115.275 41.0781 114.552 41.7083 113.614 42.1562C112.677 42.5938 111.609 42.8125 110.411 42.8125C108.359 42.8125 106.812 42.2656 105.77 41.1719C104.729 40.0677 104.208 38.4844 104.208 36.4219V25.0312H108.973V35.2344C108.973 36.4948 109.197 37.4427 109.645 38.0781C110.093 38.7031 110.807 39.0156 111.786 39.0156C113.119 39.0156 114.083 38.5729 114.677 37.6875C115.27 36.7917 115.567 35.3125 115.567 33.25V25.0312H120.333V42.5H116.677ZM132.692 39.0156C133.525 39.0156 134.525 38.8333 135.692 38.4688V42.0156C134.505 42.5469 133.046 42.8125 131.317 42.8125C129.411 42.8125 128.02 42.3333 127.145 41.375C126.281 40.4062 125.848 38.9583 125.848 37.0312V28.6094H123.567V26.5938L126.192 25L127.567 21.3125H130.614V25.0312H135.505V28.6094H130.614V37.0312C130.614 37.7083 130.802 38.2083 131.177 38.5312C131.562 38.8542 132.067 39.0156 132.692 39.0156ZM143.036 33.7344C143.036 35.4635 143.317 36.7708 143.88 37.6562C144.453 38.5417 145.38 38.9844 146.661 38.9844C147.932 38.9844 148.843 38.5469 149.395 37.6719C149.958 36.7865 150.239 35.474 150.239 33.7344C150.239 32.0052 149.958 30.7083 149.395 29.8438C148.833 28.9792 147.911 28.5469 146.63 28.5469C145.359 28.5469 144.442 28.9792 143.88 29.8438C143.317 30.6979 143.036 31.9948 143.036 33.7344ZM155.114 33.7344C155.114 36.5781 154.364 38.8021 152.864 40.4062C151.364 42.0104 149.275 42.8125 146.598 42.8125C144.921 42.8125 143.442 42.4479 142.161 41.7188C140.88 40.9792 139.895 39.9219 139.208 38.5469C138.52 37.1719 138.177 35.5677 138.177 33.7344C138.177 30.8802 138.921 28.6615 140.411 27.0781C141.9 25.4948 143.994 24.7031 146.692 24.7031C148.369 24.7031 149.848 25.0677 151.13 25.7969C152.411 26.526 153.395 27.5729 154.083 28.9375C154.77 30.3021 155.114 31.901 155.114 33.7344ZM169.13 23.3594C167.307 23.3594 165.895 24.0469 164.895 25.4219C163.895 26.7865 163.395 28.6927 163.395 31.1406C163.395 36.2344 165.307 38.7812 169.13 38.7812C170.734 38.7812 172.677 38.3802 174.958 37.5781V41.6406C173.083 42.4219 170.989 42.8125 168.677 42.8125C165.354 42.8125 162.812 41.8073 161.052 39.7969C159.291 37.776 158.411 34.8802 158.411 31.1094C158.411 28.7344 158.843 26.6562 159.708 24.875C160.572 23.0833 161.812 21.7135 163.427 20.7656C165.052 19.8073 166.953 19.3281 169.13 19.3281C171.348 19.3281 173.578 19.8646 175.817 20.9375L174.255 24.875C173.4 24.4688 172.541 24.1146 171.677 23.8125C170.812 23.5104 169.963 23.3594 169.13 23.3594ZM190.552 42.5L189.63 40.125H189.505C188.703 41.1354 187.874 41.8385 187.02 42.2344C186.177 42.6198 185.072 42.8125 183.708 42.8125C182.031 42.8125 180.708 42.3333 179.739 41.375C178.781 40.4167 178.302 39.0521 178.302 37.2812C178.302 35.4271 178.947 34.0625 180.239 33.1875C181.541 32.3021 183.499 31.8125 186.114 31.7188L189.145 31.625V30.8594C189.145 29.0885 188.239 28.2031 186.427 28.2031C185.031 28.2031 183.39 28.625 181.505 29.4688L179.927 26.25C181.937 25.1979 184.166 24.6719 186.614 24.6719C188.958 24.6719 190.755 25.1823 192.005 26.2031C193.255 27.224 193.88 28.776 193.88 30.8594V42.5H190.552ZM189.145 34.4062L187.302 34.4688C185.916 34.5104 184.885 34.7604 184.208 35.2188C183.531 35.6771 183.192 36.375 183.192 37.3125C183.192 38.6562 183.963 39.3281 185.505 39.3281C186.609 39.3281 187.489 39.0104 188.145 38.375C188.812 37.7396 189.145 36.8958 189.145 35.8438V34.4062ZM208.552 24.7031C209.197 24.7031 209.734 24.75 210.161 24.8438L209.802 29.3125C209.416 29.2083 208.947 29.1562 208.395 29.1562C206.874 29.1562 205.687 29.5469 204.833 30.3281C203.989 31.1094 203.567 32.2031 203.567 33.6094V42.5H198.802V25.0312H202.411L203.114 27.9688H203.348C203.89 26.9896 204.619 26.2031 205.536 25.6094C206.463 25.0052 207.468 24.7031 208.552 24.7031ZM220.255 28.0938C219.244 28.0938 218.453 28.4167 217.88 29.0625C217.307 29.6979 216.979 30.6042 216.895 31.7812H223.583C223.562 30.6042 223.255 29.6979 222.661 29.0625C222.067 28.4167 221.265 28.0938 220.255 28.0938ZM220.927 42.8125C218.114 42.8125 215.916 42.0365 214.333 40.4844C212.749 38.9323 211.958 36.7344 211.958 33.8906C211.958 30.9635 212.687 28.7031 214.145 27.1094C215.614 25.5052 217.64 24.7031 220.223 24.7031C222.692 24.7031 224.614 25.4062 225.989 26.8125C227.364 28.2188 228.052 30.1615 228.052 32.6406V34.9531H216.786C216.838 36.3073 217.239 37.3646 217.989 38.125C218.739 38.8854 219.791 39.2656 221.145 39.2656C222.197 39.2656 223.192 39.1562 224.13 38.9375C225.067 38.7188 226.046 38.3698 227.067 37.8906V41.5781C226.234 41.9948 225.343 42.3021 224.395 42.5C223.447 42.7083 222.291 42.8125 220.927 42.8125Z" fill="black"/>
</svg>
